#!OML:ASF I:\Actors\actors\Patient Classification 1\Patient 1\Session 1\Subject1.ASF
:FULLY-SPECIFIED
:DEGREES
2255
root 0.0957202 17.6639 8.23118 10.7189 7.612 -12.9274
lowerback 4.21905 3.94618 7.45888
upperback -6.86802 5.70138 -3.89477
thorax -8.58098 2.15565 -9.004
lowerneck -16.987 2.20063 0.393931
upperneck 11.6291 1.25752 10.9359
head 6.28065 1.57988 3.59546
rclavicle 7.95139e-016 9.54166e-015
rhumerus 83.5588 6.50292 -8.8144
rradius 61.0511
rwrist 47.0471
rhand 10.0476 -18.6813
rfingers 7.12502
rthumb 35.1715 -405.197
lclavicle 7.95139e-016 9.54166e-015
lhumerus 37.263 -8.70266 101.111
lradius 74.4121
lwrist -21.3751
lhand -50.9071 -15.1374
lfingers 7.12502
lthumb -23.4595 13.4524
rfemur -8.02205 19.67 26.7775
rtibia 5.15725
rfoot -14.9675 -28.1444
rtoes 5.35231
lfemur -1.01802 -57.4414 -0.920994
ltibia -5.50555
lfoot -28.3952 60.7469
ltoes 14.381
2256
root 0.0978494 17.6673 8.234 10.7631 7.61909 -13.0107
lowerback 4.26291 3.96877 7.46516
upperback -6.85413 5.7263 -4.01412
thorax -8.57464 2.16381 -9.14439
lowerneck -17.0235 2.27445 0.578826
upperneck 11.563 1.32696 10.886
head 6.26415 1.61684 3.55515
rclavicle -3.95581e-014 3.49861e-014
rhumerus 83.9713 6.68166 -9.42608
rradius 60.814
rwrist 46.4995
rhand 13.6201 -18.5577
rfingers 7.12502
rthumb 38.5512 -404.205
lclavicle -3.95581e-014 3.49861e-014
lhumerus 37.3721 -8.42866 101.252
lradius 74.4741
lwrist -21.2861
lhand -51.6715 -16.0264
lfingers 7.12502
lthumb -24.1926 12.4677
rfemur -8.06125 19.6829 26.8498
rtibia 5.14617
rfoot -14.9552 -28.1038
rtoes 5.61671
lfemur -1.07836 -57.6563 -0.776939
ltibia -5.46983
lfoot -29.0404 60.8427
ltoes 14.8609
2257
root 0.100133 17.6696 8.23815 10.7791 7.61023 -13.1482
lowerback 4.31865 3.96503 7.48724
upperback -6.85627 5.72163 -4.08841
thorax -8.60239 2.15505 -9.24486
lowerneck -17.041 2.3587 0.541884
upperneck 11.5481 1.4164 11.1353
head 6.25666 1.68033 3.65149
rclavicle -1.96797e-014 -6.67916e-014
rhumerus 84.5175 6.88042 -10.0937
rradius 60.4554
rwrist 45.9161
rhand 17.2346 -18.4581
rfingers 7.12502
rthumb 41.9508 -403.065
lclavicle -1.96797e-014 -6.67916e-014
lhumerus 37.4369 -8.00632 101.387
lradius 74.5574
lwrist -21.4554
lhand -52.275 -16.7922
lfingers 7.12502
lthumb -24.7711 11.6237
rfemur -8.05769 19.6581 26.9988
rtibia 5.10272
rfoot -14.8959 -28.0733
rtoes 5.53413
lfemur -1.02931 -57.8774 -0.651536
ltibia -5.47476
lfoot -29.5142 61.0169
ltoes 15.1264
2258
root 0.103082 17.6712 8.24297 10.8007 7.57382 -13.2358
lowerback 4.36323 3.99153 7.48312
upperback -6.83879 5.75378 -4.16647
thorax -8.59546 2.16919 -9.33439
lowerneck -16.9122 2.39348 0.348022
upperneck 11.3532 1.49906 11.3833
head 6.16489 1.72235 3.76386
rclavicle -3.1408e-014 0
rhumerus 85.0537 7.014 -10.6793
rradius 59.9915
rwrist 45.4205
rhand 20.7279 -18.4715
rfingers 7.12502
rthumb 45.2125 -401.887
lclavicle -3.1408e-014 0
lhumerus 37.5688 -7.62449 101.505
lradius 74.5381
lwrist -21.7167
lhand -52.649 -17.5903
lfingers 7.12502
lthumb -25.1294 10.7759
rfemur -8.05765 19.5619 27.0832
rtibia 5.05356
rfoot -14.8152 -27.9809
rtoes 5.13702
lfemur -0.956739 -58.0437 -0.611885
ltibia -5.48657
lfoot -29.7479 61.2114
ltoes 15.1839
2259
root 0.105745 17.6731 8.24722 10.85 7.51775 -13.2841
lowerback 4.36724 4.05019 7.42136
upperback -6.77404 5.82002 -4.24435
thorax -8.50903 2.21122 -9.38469
lowerneck -17.1309 2.31541 0.321028
upperneck 11.3546 1.39081 11.3789
head 6.20875 1.67452 3.76178
rclavicle 6.02318e-014 -1.59028e-014
rhumerus 85.5236 7.02718 -11.1145
rradius 59.444
rwrist 44.9583
rhand 23.6029 -18.622
rfingers 7.12502
rthumb 47.8754 -400.893
lclavicle 6.02318e-014 -1.59028e-014
lhumerus 37.8045 -7.34389 101.592
lradius 74.5009
lwrist -21.9584
lhand -52.0308 -17.2387
lfingers 7.12502
lthumb -24.537 11.2092
rfemur -8.10143 19.5127 27.1072
rtibia 5.02955
rfoot -14.6954 -27.8758
rtoes 4.80566
lfemur -0.96639 -58.0992 -0.548144
ltibia -5.49461
lfoot -29.999 61.2936
ltoes 15.2676
2260
root 0.107737 17.6748 8.25102 10.8968 7.45216 -13.349
lowerback 4.35163 4.1074 7.33406
upperback -6.71151 5.88297 -4.29223
thorax -8.41917 2.25466 -9.38487
lowerneck -17.2418 2.32148 0.341942
upperneck 11.3217 1.39609 11.3586
head 6.21695 1.67831 3.75418
rclavicle 8.13029e-014 -4.77083e-014
rhumerus 85.9466 7.08638 -11.5182
rradius 58.9678
rwrist 44.4257
rhand 26.2647 -18.8644
rfingers 7.12502
rthumb 50.3197 -399.918
lclavicle 8.13029e-014 -4.77083e-014
lhumerus 38.021 -7.07346 101.651
lradius 74.4776
lwrist -22.2803
lhand -50.4432 -16.0805
lfingers 7.12502
lthumb -23.0144 12.5655
rfemur -8.14138 19.5433 27.1535
rtibia 4.99996
rfoot -14.5495 -27.8309
rtoes 4.57105
lfemur -0.986413 -58.1207 -0.446208
ltibia -5.51081
lfoot -30.3435 61.3235
ltoes 15.4811
2261
root 0.109993 17.6763 8.25563 10.9091 7.39341 -13.4008
lowerback 4.39231 4.15923 7.28094
upperback -6.69858 5.94538 -4.36106
thorax -8.41308 2.28736 -9.43823
lowerneck -17.1376 2.27345 0.0784765
upperneck 11.1986 1.36836 11.6539
head 6.15848 1.67103 3.88519
rclavicle 2.48481e-014 -9.54166e-015
rhumerus 86.2392 7.28858 -11.9334
rradius 58.7256
rwrist 43.3162
rhand 29.1735 -19.6393
rfingers 7.12502
rthumb 52.9624 -399.155
lclavicle 2.48481e-014 -9.54166e-015
lhumerus 38.1335 -6.82573 101.631
lradius 74.4278
lwrist -22.5761
lhand -49.6003 -15.8721
lfingers 7.12502
lthumb -22.2054 12.8725
rfemur -8.11923 19.5765 27.2032
rtibia 4.94493
rfoot -14.4972 -27.8269
rtoes 4.33671
lfemur -0.893964 -58.3051 -0.462493
ltibia -5.50445
lfoot -30.9233 61.4527
ltoes 15.907
2262
root 0.111998 17.6783 8.26155 10.878 7.34681 -13.4769
lowerback 4.49361 4.1873 7.27774
upperback -6.7042 5.98295 -4.45325
thorax -8.46232 2.29898 -9.55289
lowerneck -17.037 2.2546 -0.0602184
upperneck 11.1316 1.34819 11.9298
head 6.11992 1.67357 3.99191
rclavicle -1.74931e-014 -3.49861e-014
rhumerus 86.5431 7.50306 -12.323
rradius 58.5237
rwrist 41.5978
rhand 31.9161 -20.9914
rfingers 7.12502
rthumb 55.4209 -398.821
lclavicle -1.74931e-014 -3.49861e-014
lhumerus 38.2316 -6.54043 101.433
lradius 74.3714
lwrist -22.7703
lhand -49.3064 -16.206
lfingers 7.12502
lthumb -21.9232 12.5718
rfemur -8.04076 19.6162 27.3043
rtibia 4.88299
rfoot -14.4745 -27.8484
rtoes 4.01568
lfemur -0.697516 -58.4258 -0.535081
ltibia -5.533
lfoot -31.2248 61.562
ltoes 16.0481
2263
root 0.114347 17.6798 8.26779 10.8653 7.29402 -13.5399
lowerback 4.57128 4.18835 7.23339
upperback -6.71709 5.97979 -4.52901
thorax -8.5194 2.29301 -9.62119
lowerneck -16.9404 2.30396 -0.0160945
upperneck 11.1422 1.39468 12.0294
head 6.10451 1.70446 4.0196
rclavicle 1.74931e-014 -5.725e-014
rhumerus 86.9918 7.7069 -12.6768
rradius 58.2003
rwrist 40.3184
rhand 34.0964 -22.2174
rfingers 7.12502
rthumb 57.3472 -398.51
lclavicle 1.74931e-014 -5.725e-014
lhumerus 38.3563 -6.16714 101.101
lradius 74.3299
lwrist -22.9459
lhand -48.8847 -16.2403
lfingers 7.12502
lthumb -21.5183 12.5844
rfemur -7.98602 19.6466 27.3812
rtibia 4.82738
rfoot -14.4095 -27.8397
rtoes 3.7713
lfemur -0.54552 -58.4484 -0.590316
ltibia -5.5682
lfoot -31.2328 61.6393
ltoes 15.9442
2264
root 0.117675 17.6803 8.27291 10.9099 7.25152 -13.5525
lowerback 4.5786 4.20822 7.1215
upperback -6.75103 5.99382 -4.57541
thorax -8.56302 2.30177 -9.61339
lowerneck -16.761 2.33058 -0.0897582
upperneck 11.0998 1.4488 12.1092
head 6.05596 1.72738 4.05717
rclavicle 1.31198e-014 -1.27222e-014
rhumerus 87.3347 7.97439 -12.9579
rradius 57.9431
rwrist 39.7111
rhand 35.6535 -23.1995
rfingers 7.12502
rthumb 58.705 -398.271
lclavicle 1.31198e-014 -1.27222e-014
lhumerus 38.4145 -5.80604 100.879
lradius 74.2911
lwrist -23.3471
lhand -48.9684 -16.0861
lfingers 7.12502
lthumb -21.5987 12.7294
rfemur -8.00633 19.6445 27.3715
rtibia 4.79647
rfoot -14.3962 -27.8033
rtoes 3.65436
lfemur -0.559733 -58.442 -0.578673
ltibia -5.55683
lfoot -31.3063 61.6602
ltoes 16.037
